<svg xmlns="http://www.w3.org/2000/svg" width="143.097" height="23.935" viewBox="0 0 143.097 23.935">
  <g id="logo_v2_-colored" data-name="logo v2 -colored" transform="translate(0.118 -0.454)">
    <g id="Group_474" data-name="Group 474" transform="translate(-0.118 0.454)">
      <path id="Path_198" data-name="Path 198" d="M44.325,13.133c-1.05,1.6-2.251,3.1-3.42,4.578-1.45,1.818-3.377,4.622-5.888,4.87C31.7,22.95,31.6,19.238,32,16.911c.541-3.312,2-6.4,2.175-9.708C31.7,8.728,29.7,11.78,28.209,14c-1.342,2.035-2.219,4.946-4.654,5.855-.985.4-1.743-.693-1.559-1.559.649-3.052,1.894-5.931,2.695-8.94.216-1.017,1.2-3.929.509-4.795-1.017-1.31-3.236,1.017-3.961,1.71-4.362,4.07-6.5,9.925-10.033,14.687-.8,1.126-2.76.509-2.327-.942,1.234-4.254,2.652-9.092,1.169-13.453C9.679,5.611,8.77,3.392,7.753,3.1,6.335,2.667,5.166,4.193,4.441,5.178,2.655,7.473.7,13.436,5.534,13.544c1.634.032,1.634,2.619,0,2.543-4.113-.108-6.288-4-5.487-7.814C.7,5.254,3.759.275,7.4.459s5.347,5.2,5.7,8.215a20.263,20.263,0,0,1-.032,4.438c2.695-4.73,5.6-9.492,10.585-11.559C27.462-.06,28,4.085,27.711,6.921a26.733,26.733,0,0,1-1.126,5.022c.617-.909,1.31-1.786,2-2.652C30.373,7.072,32.3,4.853,35.136,4.02A1.335,1.335,0,0,1,36.77,5.254a21.967,21.967,0,0,1-1.126,7.814c-.4,1.418-.833,2.76-1.093,4.145-.108.433-.541,2.067-.184,2.511.584.693,1.385-.141,1.786-.476a40.532,40.532,0,0,0,5.964-7.414C43.058,10.514,45.277,11.791,44.325,13.133Z" transform="translate(0.118 -0.454)" fill="#ff053b"/>
    </g>
    <g id="Group_475" data-name="Group 475" transform="translate(52.182 3.003)">
      <path id="Path_199" data-name="Path 199" d="M500.547,69.881v7.6H497.3V70.574c0-1.45-.779-2.251-1.927-2.251s-1.927.8-1.927,2.251v6.905H490.2V70.574c0-1.45-.779-2.251-1.927-2.251s-1.927.8-1.927,2.251v6.905H483.1V65.66h3.03v1.429a3.212,3.212,0,0,1,3.1-1.688,4,4,0,0,1,3.528,1.818,4.147,4.147,0,0,1,3.593-1.818C498.815,65.4,500.547,67.153,500.547,69.881Z" transform="translate(-483.1 -60.919)" fill="#44374d"/>
      <path id="Path_200" data-name="Path 200" d="M668.089,72.478h-8.312a2.915,2.915,0,0,0,5.3,1.147l2.6,1.234c-.714,1.732-2.663,2.879-5.087,2.879a6.171,6.171,0,0,1-.216-12.339,5.767,5.767,0,0,1,5.866,5.823A4.24,4.24,0,0,1,668.089,72.478ZM664.8,70.1a2.294,2.294,0,0,0-2.424-2.1,2.486,2.486,0,0,0-2.533,2.1Z" transform="translate(-637.643 -60.919)" fill="#44374d"/>
      <path id="Path_201" data-name="Path 201" d="M785.368,66.6v2.814h-1.559a2.531,2.531,0,0,0-2.663,2.771v6.364H777.9V66.73h3.031V68.5a3.047,3.047,0,0,1,3.2-1.9Z" transform="translate(-745.993 -61.989)" fill="#44374d"/>
      <path id="Path_202" data-name="Path 202" d="M852.9,71.548a6.062,6.062,0,0,1,6.256-6.148,5.58,5.58,0,0,1,5.52,3.637L861.9,70.379a2.789,2.789,0,0,0-2.749-2.056,3.268,3.268,0,0,0,0,6.494A2.771,2.771,0,0,0,861.9,72.76l2.771,1.364a5.6,5.6,0,0,1-5.52,3.615A6.1,6.1,0,0,1,852.9,71.548Z" transform="translate(-812.875 -60.919)" fill="#44374d"/>
      <path id="Path_203" data-name="Path 203" d="M984.623,36.507v7.62h-3.247V37.2a2.166,2.166,0,1,0-4.329,0v6.927H973.8V28h3.247v5.39a3.643,3.643,0,0,1,3.1-1.342A4.232,4.232,0,0,1,984.623,36.507Z" transform="translate(-920.69 -27.567)" fill="#44374d"/>
      <path id="Path_204" data-name="Path 204" d="M1091.9,28h3.247v3.247H1091.9Zm0,4.308h3.247V44.127H1091.9Z" transform="translate(-1026.008 -27.567)" fill="#44374d"/>
      <path id="Path_205" data-name="Path 205" d="M1152.564,28.741l-5.13,13.118a4.731,4.731,0,0,1-4.611,3.528,4.145,4.145,0,0,1-1.862-.368V42.356a5.372,5.372,0,0,0,1.472.216,1.879,1.879,0,0,0,1.948-1.342l.3-.671-3.528-9h-3.9v9h-3.247v-9H1132V28.741h2.013v-.346c0-2.792,1.732-4.394,4.676-4.394a6.263,6.263,0,0,1,1.147.108v2.771a4.592,4.592,0,0,0-.714-.065c-1.212,0-1.862.541-1.862,1.58v.346h6.256l2.792,7.663,2.792-7.663Z" transform="translate(-1061.768 -24)" fill="#44374d"/>
    </g>
  </g>
</svg>
