<svg xmlns="http://www.w3.org/2000/svg" width="80.037" height="79.954" viewBox="0 0 80.037 79.954">
  <g id="secure_payments" data-name="secure payments" transform="translate(0.5)">
    <g id="Group_492" data-name="Group 492" transform="translate(7.579 1.016)">
      <g id="Group_490" data-name="Group 490" transform="translate(12.659 22.437)">
        <ellipse id="Ellipse_79" data-name="Ellipse 79" cx="27.401" cy="27.584" rx="27.401" ry="27.584" fill="#9795a6"/>
      </g>
      <path id="Path_207" data-name="Path 207" d="M100.47,86H55.5A7.507,7.507,0,0,0,48,93.5v29.983a7.507,7.507,0,0,0,7.5,7.5H100.47a7.507,7.507,0,0,0,7.5-7.5V93.5A7.507,7.507,0,0,0,100.47,86ZM55.5,91H100.47a2.5,2.5,0,0,1,2.5,2.5v7.5H53V93.5A2.5,2.5,0,0,1,55.5,91Zm44.974,34.98H55.5a2.5,2.5,0,0,1-2.5-2.5v-17.49h49.971v17.49A2.5,2.5,0,0,1,100.47,125.977Z" transform="translate(-48 -72.691)" fill="#5e5167"/>
      <g id="Group_491" data-name="Group 491" transform="translate(5.33)">
        <ellipse id="Ellipse_80" data-name="Ellipse 80" cx="10.96" cy="11.027" rx="10.96" ry="11.027" fill="#ff053b"/>
      </g>
    </g>
    <rect id="Rectangle_347" data-name="Rectangle 347" width="80.037" height="79.954" transform="translate(-0.5)" fill="none"/>
  </g>
</svg>
