<svg id="worldwide_shipping" data-name="worldwide shipping" xmlns="http://www.w3.org/2000/svg" width="80" height="80" viewBox="0 0 80 80">
  <g id="Group_495" data-name="Group 495" transform="translate(0.166 3.119)">
    <g id="Group_493" data-name="Group 493" transform="translate(24.519 19.876)">
      <ellipse id="Ellipse_81" data-name="Ellipse 81" cx="27.253" cy="27.435" rx="27.253" ry="27.435" fill="#9795a6"/>
    </g>
    <path id="Path_208" data-name="Path 208" d="M106.463,35.471a1.483,1.483,0,0,0-.133-.381,4.182,4.182,0,0,0-.348-.414,8.724,8.724,0,0,0-2.866-2.684L82.027,19.981a8.823,8.823,0,0,0-8.731,0l-9.758,5.566a2.692,2.692,0,0,0-1.358.779l-9.99,5.666a8.612,8.612,0,0,0-2.866,2.7,2.719,2.719,0,0,0-.348.4,3.09,3.09,0,0,0-.116.364,8.974,8.974,0,0,0-1.06,4.125V63.618a8.822,8.822,0,0,0,4.39,7.588L73.28,83.216a8.741,8.741,0,0,0,3,.977,2.41,2.41,0,0,0,2.75,0,8.771,8.771,0,0,0,2.982-.977l21.106-12.028a8.775,8.775,0,0,0,4.39-7.571h0V39.579A8.371,8.371,0,0,0,106.463,35.471ZM76,24.735a3.274,3.274,0,0,1,1.657-.447,3.334,3.334,0,0,1,1.673.447L99.19,36.05l-7.952,4.589L69.768,28.281Zm1.657,23.724L56.117,36.05l8.118-4.622,21.52,12.359ZM54.891,66.434a3.257,3.257,0,0,1-1.64-2.816V40.706L74.937,53.214V77.849Zm45.542,0L80.387,77.849V53.214l21.686-12.508V63.6A3.264,3.264,0,0,1,100.433,66.434Z" transform="translate(-40.047 -18.825)" fill="#5e5167"/>
    <g id="Group_494" data-name="Group 494" transform="translate(0 6.175)">
      <ellipse id="Ellipse_82" data-name="Ellipse 82" cx="10.901" cy="10.967" rx="10.901" ry="10.967" fill="#ff053b"/>
    </g>
  </g>
  <rect id="Rectangle_348" data-name="Rectangle 348" width="80" height="80" fill="none"/>
</svg>
